<?xml version="1.0" encoding="UTF-8"?>
<svg version="1.1" xmlns="http://www.w3.org/2000/svg" width="926" height="926">
<path d="M0 0 C1.3746452 0.20088404 2.74932105 0.40155844 4.12402344 0.60205078 C85.72815277 12.67411702 161.69523265 45.36309626 249.6328125 115.8515625 C251.15704686 117.23494352 252.69274506 118.60585021 254.2421875 119.9609375 C259.93028593 124.95956945 265.32441773 130.21847055 270.6875 135.5625 C271.75689819 136.62500977 271.75689819 136.62500977 272.84790039 137.70898438 C277.43663968 142.31105218 281.75941382 147.07783459 286 152 C286.99784351 153.12171374 287.99777281 154.24157626 289 155.359375 C297.96394611 165.4477082 306.03433938 176.11421321 314 187 C314.91665317 188.23959331 315.83331847 189.47917766 316.75 190.71875 C361.02186187 251.10449127 387.9460458 323.21111112 398.70574951 396.9864502 C398.97897306 398.85611309 399.26085541 400.72450504 399.54345703 402.59277344 C405.05523086 440.69899928 404.75554022 482.95034599 399 521 C398.79911596 522.3746452 398.59844156 523.74932105 398.39794922 525.12402344 C386.32588298 606.72815277 353.63690374 682.69523265 283.1484375 770.6328125 C281.76505648 772.15704686 280.39414979 773.69274506 279.0390625 775.2421875 C274.04043055 780.93028593 268.78152945 786.32441773 263.4375 791.6875 C262.72916016 792.40043213 262.02082031 793.11336426 261.29101562 793.84790039 C256.68894782 798.43663968 251.92216541 802.75941382 247 807 C245.87828626 807.99784351 244.75842374 808.99777281 243.640625 810 C233.5522918 818.96394611 222.88578679 827.03433938 212 835 C210.76040669 835.91665317 209.52082234 836.83331847 208.28125 837.75 C147.89550873 882.02186187 75.78888888 908.9460458 2.0135498 919.70574951 C0.14388691 919.97897306 -1.72450504 920.26085541 -3.59277344 920.54345703 C-41.69899928 926.05523086 -83.95034599 925.75554022 -122 920 C-123.3746452 919.79911596 -124.74932105 919.59844156 -126.12402344 919.39794922 C-207.72815277 907.32588298 -283.69523265 874.63690374 -371.6328125 804.1484375 C-373.15704686 802.76505648 -374.69274506 801.39414979 -376.2421875 800.0390625 C-381.93028593 795.04043055 -387.32441773 789.78152945 -392.6875 784.4375 C-393.40043213 783.72916016 -394.11336426 783.02082031 -394.84790039 782.29101562 C-399.43663968 777.68894782 -403.75941382 772.92216541 -408 768 C-408.99784351 766.87828626 -409.99777281 765.75842374 -411 764.640625 C-419.96394611 754.5522918 -428.03433938 743.88578679 -436 733 C-436.91665317 731.76040669 -437.83331847 730.52082234 -438.75 729.28125 C-483.02186187 668.89550873 -509.9460458 596.78888888 -520.70574951 523.0135498 C-520.97897306 521.14388691 -521.26085541 519.27549496 -521.54345703 517.40722656 C-527.05523086 479.30100072 -526.75554022 437.04965401 -521 399 C-520.79911596 397.6253548 -520.59844156 396.25067895 -520.39794922 394.87597656 C-508.32588298 313.27184723 -475.63690374 237.30476735 -405.1484375 149.3671875 C-403.76505648 147.84295314 -402.39414979 146.30725494 -401.0390625 144.7578125 C-396.04043055 139.06971407 -390.78152945 133.67558227 -385.4375 128.3125 C-384.72916016 127.59956787 -384.02082031 126.88663574 -383.29101562 126.15209961 C-378.68894782 121.56336032 -373.92216541 117.24058618 -369 113 C-367.87828626 112.00215649 -366.75842374 111.00222719 -365.640625 110 C-355.5522918 101.03605389 -344.88578679 92.96566062 -334 85 C-332.76040669 84.08334683 -331.52082234 83.16668153 -330.28125 82.25 C-269.89550873 37.97813813 -197.78888888 11.0539542 -124.0135498 0.29425049 C-122.14388691 0.02102694 -120.27549496 -0.26085541 -118.40722656 -0.54345703 C-80.30100072 -6.05523086 -38.04965401 -5.75554022 0 0 Z " fill="#F5F4EE" transform="translate(524,3)"/>
<path d="M0 0 C0.75534607 -0.00297112 1.51069215 -0.00594224 2.2889275 -0.0090034 C4.81583417 -0.01766343 7.34269332 -0.01919638 9.86961365 -0.02069092 C11.68337098 -0.02532111 13.49712734 -0.03034605 15.31088257 -0.03573608 C20.23685459 -0.04884534 25.16281298 -0.05530253 30.08879972 -0.05974674 C33.16959328 -0.06268071 36.25038315 -0.06678621 39.33117485 -0.07125092 C48.9794054 -0.08492388 58.62762748 -0.09459071 68.27586704 -0.09845281 C79.39568016 -0.10292888 90.51537006 -0.12045672 101.63514572 -0.1494534 C110.24088559 -0.17111136 118.8465909 -0.18115933 127.45235771 -0.18249393 C132.5868939 -0.18353929 137.72131423 -0.18938944 142.85582161 -0.20731354 C147.69117693 -0.22386474 152.52633021 -0.22591567 157.36170387 -0.21717453 C159.12887363 -0.21640783 160.89605457 -0.22069796 162.66319656 -0.23063278 C180.87451358 -0.32694714 196.64963422 2.80038519 210.35569763 15.85137939 C220.09116778 26.65627619 225.57701852 39.03228006 225.55863953 53.57038879 C225.56309621 54.67890659 225.56309621 54.67890659 225.56764293 55.80981869 C225.57630117 58.28144748 225.57783576 60.75302767 225.57933044 63.22467041 C225.58396077 64.9990194 225.58898572 66.77336739 225.59437561 68.54771423 C225.6074837 73.36625165 225.61394184 78.18477515 225.61838627 83.00332761 C225.62132046 86.01711733 225.62542599 89.03090327 225.62989044 92.04469109 C225.64356316 101.48361873 225.65323009 110.92253771 225.65709233 120.36147457 C225.6615682 131.23904671 225.67909514 142.11649287 225.70809293 152.99402672 C225.72975313 161.41293167 225.73979898 169.83180129 225.74113345 178.25073379 C225.74217867 183.27348835 225.74802557 188.29612447 225.76595306 193.31884956 C225.78250815 198.04914693 225.78455335 202.77923778 225.77581406 207.50955391 C225.77504756 209.23802242 225.77933477 210.96650237 225.78927231 212.69494247 C225.88535669 230.46051734 222.90109194 245.43058779 210.48069763 258.95294189 C199.04443307 269.77231251 185.00924365 274.51605778 169.48069763 274.26544189 C168.41528748 274.25641846 167.34987732 274.24739502 166.25218201 274.23809814 C163.6406173 274.21467604 161.02952826 274.18187641 158.41819763 274.14044189 C158.25009583 275.33685303 158.25009583 275.33685303 158.07859802 276.55743408 C155.11880464 296.98898813 145.83150131 313.54993457 129.34397888 326.19122314 C125.84882471 328.51977045 122.27562086 330.53285248 118.54319763 332.45294189 C117.91985535 332.77859131 117.29651306 333.10424072 116.65428162 333.4397583 C106.77363999 338.28249408 96.57560459 339.70492963 85.66819763 339.64044189 C84.5336615 339.63472168 83.39912537 339.62900146 82.23020935 339.62310791 C62.1041581 339.19754638 45.25291288 330.25038308 31.23460388 315.90606689 C21.96968669 305.1421475 13.41819763 288.64640501 13.41819763 274.14044189 C12.78953796 274.16138916 12.1608783 274.18233643 11.51316833 274.20391846 C-7.3028094 274.74776269 -21.43250653 273.61700859 -36.27711487 260.81622314 C-47.92818269 249.73901388 -53.38745225 236.69128928 -54.03713596 220.67310667 C-54.11800026 216.77816186 -54.10787762 212.88652147 -54.08351135 208.99102783 C-54.08730551 207.23475717 -54.09281449 205.47848953 -54.09988403 203.722229 C-54.11370899 199.00338273 -54.10276299 194.28490634 -54.08617282 189.56608105 C-54.07220288 184.60162844 -54.07879554 179.63719473 -54.08230591 174.67272949 C-54.08499766 166.34452431 -54.07161848 158.01646412 -54.0483551 149.68829346 C-54.02171694 140.08602456 -54.02001329 130.48399732 -54.03174347 120.88170409 C-54.04255212 111.60400945 -54.03631223 102.32640147 -54.02218819 93.04871368 C-54.01645865 89.11759623 -54.01648694 85.18654282 -54.02125359 81.2554245 C-54.02605434 76.62261233 -54.01579448 71.99006221 -53.99429893 67.3572998 C-53.98877415 65.66592543 -53.9882257 63.97452565 -53.9932518 62.28314972 C-54.04138563 43.75030058 -50.50814693 28.35490017 -37.28492737 14.61700439 C-26.81299526 5.02277758 -14.14185024 -0.01748109 0 0 Z " fill="#FDFBF8" transform="translate(121.58180236816406,277.85955810546875)"/>
<path d="M0 0 C0.75534607 -0.00297112 1.51069215 -0.00594224 2.2889275 -0.0090034 C4.81583417 -0.01766343 7.34269332 -0.01919638 9.86961365 -0.02069092 C11.68337098 -0.02532111 13.49712734 -0.03034605 15.31088257 -0.03573608 C20.23685459 -0.04884534 25.16281298 -0.05530253 30.08879972 -0.05974674 C33.16959328 -0.06268071 36.25038315 -0.06678621 39.33117485 -0.07125092 C48.9794054 -0.08492388 58.62762748 -0.09459071 68.27586704 -0.09845281 C79.39568016 -0.10292888 90.51537006 -0.12045672 101.63514572 -0.1494534 C110.24088559 -0.17111136 118.8465909 -0.18115933 127.45235771 -0.18249393 C132.5868939 -0.18353929 137.72131423 -0.18938944 142.85582161 -0.20731354 C147.69117693 -0.22386474 152.52633021 -0.22591567 157.36170387 -0.21717453 C159.12887363 -0.21640783 160.89605457 -0.22069796 162.66319656 -0.23063278 C180.87451358 -0.32694714 196.64963422 2.80038519 210.35569763 15.85137939 C220.09116778 26.65627619 225.57701852 39.03228006 225.55863953 53.57038879 C225.56309621 54.67890659 225.56309621 54.67890659 225.56764293 55.80981869 C225.57630117 58.28144748 225.57783576 60.75302767 225.57933044 63.22467041 C225.58396077 64.9990194 225.58898572 66.77336739 225.59437561 68.54771423 C225.6074837 73.36625165 225.61394184 78.18477515 225.61838627 83.00332761 C225.62132046 86.01711733 225.62542599 89.03090327 225.62989044 92.04469109 C225.64356316 101.48361873 225.65323009 110.92253771 225.65709233 120.36147457 C225.6615682 131.23904671 225.67909514 142.11649287 225.70809293 152.99402672 C225.72975313 161.41293167 225.73979898 169.83180129 225.74113345 178.25073379 C225.74217867 183.27348835 225.74802557 188.29612447 225.76595306 193.31884956 C225.78250815 198.04914693 225.78455335 202.77923778 225.77581406 207.50955391 C225.77504756 209.23802242 225.77933477 210.96650237 225.78927231 212.69494247 C225.88535669 230.46051734 222.90109194 245.43058779 210.48069763 258.95294189 C199.04443307 269.77231251 185.00924365 274.51605778 169.48069763 274.26544189 C168.41528748 274.25641846 167.34987732 274.24739502 166.25218201 274.23809814 C163.6406173 274.21467604 161.02952826 274.18187641 158.41819763 274.14044189 C158.32022888 272.99188721 158.22226013 271.84333252 158.12132263 270.65997314 C156.69512031 255.29882775 152.6570623 242.70314621 145.41819763 229.14044189 C146.30120544 228.47399658 147.18421326 227.80755127 148.09397888 227.12091064 C173.52552192 207.69819297 189.02143196 184.3998694 195.06272888 152.76544189 C198.10124297 121.77927629 191.51300301 91.54838625 171.70994568 67.03790283 C153.2278436 45.08742075 125.50292097 30.36410802 96.81858826 27.8213501 C93.15838479 27.66884162 89.51898678 27.62150459 85.85569763 27.64044189 C84.55229431 27.64616211 83.24889099 27.65188232 81.9059906 27.65777588 C55.17880249 28.14614643 30.36423708 38.36819761 10.41819763 56.14044189 C9.15169373 57.26385986 9.15169373 57.26385986 7.85960388 58.40997314 C-12.17757516 77.2593007 -23.34227891 105.40087311 -24.76148987 132.58184814 C-25.36919879 162.79848597 -14.91932091 190.96921267 5.41819763 213.14044189 C11.56846453 219.28179537 17.98578508 224.62593946 25.41819763 229.14044189 C24.11458077 232.50712214 22.64255361 235.7185755 21.04319763 238.95294189 C15.95118469 250.14633129 13.83720384 261.90546072 13.41819763 274.14044189 C-6.02824668 274.78840749 -20.88377877 274.09018688 -36.27711487 260.81622314 C-47.92818269 249.73901388 -53.38745225 236.69128928 -54.03713596 220.67310667 C-54.11800026 216.77816186 -54.10787762 212.88652147 -54.08351135 208.99102783 C-54.08730551 207.23475717 -54.09281449 205.47848953 -54.09988403 203.722229 C-54.11370899 199.00338273 -54.10276299 194.28490634 -54.08617282 189.56608105 C-54.07220288 184.60162844 -54.07879554 179.63719473 -54.08230591 174.67272949 C-54.08499766 166.34452431 -54.07161848 158.01646412 -54.0483551 149.68829346 C-54.02171694 140.08602456 -54.02001329 130.48399732 -54.03174347 120.88170409 C-54.04255212 111.60400945 -54.03631223 102.32640147 -54.02218819 93.04871368 C-54.01645865 89.11759623 -54.01648694 85.18654282 -54.02125359 81.2554245 C-54.02605434 76.62261233 -54.01579448 71.99006221 -53.99429893 67.3572998 C-53.98877415 65.66592543 -53.9882257 63.97452565 -53.9932518 62.28314972 C-54.04138563 43.75030058 -50.50814693 28.35490017 -37.28492737 14.61700439 C-26.81299526 5.02277758 -14.14185024 -0.01748109 0 0 Z " fill="#008142" transform="translate(121.58180236816406,277.85955810546875)"/>
<path d="M0 0 C16.36250559 12.70474971 27.20973967 30.67260525 29.953125 51.29296875 C31.83623147 70.31234413 25.7283224 88.51123089 13.7265625 103.23828125 C1.68625344 117.18806664 -14.63661186 126.73734349 -33.19091797 128.61035156 C-36.39974689 128.76440716 -39.5844656 128.81196144 -42.796875 128.79296875 C-43.93141113 128.78724854 -45.06594727 128.78152832 -46.23486328 128.77563477 C-66.36091453 128.35007324 -83.21215975 119.40290993 -97.23046875 105.05859375 C-109.10417028 91.263806 -116.26888884 72.53892259 -115.421875 54.328125 C-113.86136682 34.1634333 -104.1001824 15.82746097 -88.921875 2.60546875 C-62.21095976 -18.1531534 -28.03612982 -19.55923717 0 0 Z " fill="#FBBA12" transform="translate(250.046875,488.70703125)"/>
<path d="M0 0 C1.0094165 -0.00636475 2.01883301 -0.01272949 3.05883789 -0.01928711 C15.47800514 0.19103504 26.86210511 4.21595929 36.125 12.6640625 C51.02607408 28.87587921 52.65710438 50.84984838 51.96484375 71.73535156 C51.03086248 88.68471675 45.57245895 105.41652677 33.0625 117.3125 C21.87467175 126.45245988 7.85997431 128.53872169 -6.1875 127.5 C-20.24116059 125.53710609 -30.71668202 119.7310655 -39.61328125 108.73828125 C-51.61717231 91.60579278 -52.47885899 65.8829072 -49.36523438 45.91796875 C-46.57530029 30.78966306 -40.69521797 16.09724825 -27.6796875 7.00390625 C-18.38934942 1.39766775 -10.73129192 0.05817529 0 0 Z " fill="#02263F" transform="translate(521.1875,459.5)"/>
<path d="M0 0 C1.05968994 0.00829834 2.11937988 0.01659668 3.21118164 0.02514648 C18.31018747 0.35054112 28.01640497 4.77440946 38.5 15.6875 C49.60127805 28.77114913 52.00048598 46.25767542 51.75 62.8125 C51.74446106 63.53295502 51.73892212 64.25341003 51.73321533 64.99569702 C51.56207566 83.99614961 48.59364768 101.85066688 34.9375 116.17578125 C23.20208633 126.05195061 9.25639623 128.42789882 -5.65478516 127.6328125 C-16.74801782 126.5987195 -27.22738283 121.39871294 -34.9375 113.4375 C-49.70646515 95.50588777 -51.3823835 72.76936361 -49.75 50.4375 C-48.15603433 36.00020172 -43.02686506 20.22248408 -31.75 10.4375 C-21.57867304 2.80127581 -12.64949661 -0.12716584 0 0 Z " fill="#02253F" transform="translate(634.75,459.5625)"/>
<path d="M0 0 C8.25 0 16.5 0 25 0 C25.33 21.12 25.66 42.24 26 64 C31.9524866 58.05099186 31.9524866 58.05099186 37.3125 51.75 C41.30852295 46.78067472 45.49944493 42.08393158 49.8359375 37.41015625 C52.00575172 35.16631668 52.00575172 35.16631668 53.20678711 32.8737793 C55 31 55 31 58.09448242 30.54589844 C59.33560791 30.5668457 60.5767334 30.58779297 61.85546875 30.609375 C62.51710526 30.61503479 63.17874176 30.62069458 63.86042786 30.62652588 C65.97019332 30.64888753 68.07824952 30.69907629 70.1875 30.75 C71.61911606 30.7700656 73.0507588 30.78831628 74.48242188 30.8046875 C77.98883515 30.84874931 81.49425072 30.91777223 85 31 C83.26965049 33.98739754 81.53595758 36.72474465 79.25 39.3125 C78.72921875 39.90675781 78.2084375 40.50101562 77.671875 41.11328125 C77.12015625 41.73589844 76.5684375 42.35851562 76 43 C74.83277509 44.33284466 73.66611862 45.66618733 72.5 47 C71.91476562 47.66773438 71.32953125 48.33546875 70.7265625 49.0234375 C68.12905522 51.99705443 65.55835983 54.99268009 63 58 C62.154375 58.99 61.30875 59.98 60.4375 61 C57.80155158 64.2442442 55.39658841 67.57630228 53 71 C58.41341957 78.60078324 63.84744692 86.18624109 69.3125 93.75 C69.84987793 94.49419189 70.38725586 95.23838379 70.94091797 96.00512695 C73.86023374 100.04602919 76.78592229 104.08217385 79.71875 108.11328125 C80.32033936 108.94182617 80.92192871 109.77037109 81.54174805 110.62402344 C82.70531779 112.22635828 83.87078914 113.82731427 85.03833008 115.42675781 C85.55806396 116.1431543 86.07779785 116.85955078 86.61328125 117.59765625 C87.07516846 118.23195557 87.53705566 118.86625488 88.01293945 119.51977539 C89 121 89 121 89 122 C84.85604359 122.22394591 80.715359 122.38642067 76.56713867 122.49438477 C75.15928779 122.53941404 73.7518525 122.6006671 72.34545898 122.67895508 C60.73754669 123.30852281 60.73754669 123.30852281 56.6862793 120.25756836 C54.86082533 117.93218294 53.4310464 115.58439718 52 113 C50.98356749 111.54976547 49.95132965 110.11045879 48.90234375 108.68359375 C47.91179163 107.26981752 46.9234943 105.8544587 45.9375 104.4375 C44.94783616 103.01867839 43.95695303 101.60070647 42.96484375 100.18359375 C42.4838623 99.4963623 42.00288086 98.80913086 41.50732422 98.10107422 C39.44556972 95.22717412 37.28334722 92.43396203 35.10375977 89.64868164 C34 88 34 88 34 86 C30.67111827 87.49856549 28.29693068 89.14097688 26 92 C24.8341664 97.11486838 24.92384096 102.16354579 25 107.375 C24.99190088 108.79299404 24.98021697 110.21097241 24.96484375 111.62890625 C24.92842177 115.08899404 24.96592418 118.53704485 25 122 C16.75 122 8.5 122 0 122 C0 81.74 0 41.48 0 0 Z " fill="#012640" transform="translate(684,307)"/>
<path d="M0 0 C9.24 0 18.48 0 28 0 C28.92941406 2.72765625 29.85882812 5.4553125 30.81640625 8.265625 C31.74305215 10.98330165 32.66997579 13.70088342 33.59692383 16.41845703 C34.2283972 18.27024671 34.85959352 20.12213088 35.49047852 21.97412109 C39.92990687 35.00541996 44.43243654 48.01304972 49 61 C51.86911423 54.04052729 54.42850548 47.01916418 56.8203125 39.8828125 C57.16504608 38.86323456 57.50977966 37.84365662 57.86495972 36.79318237 C59.32510048 32.47452206 60.77879418 28.1536997 62.23291016 23.83300781 C63.30137463 20.66131539 64.37324441 17.4907883 65.4453125 14.3203125 C65.77242218 13.34426056 66.09953186 12.36820862 66.43655396 11.36257935 C66.74382416 10.45418304 67.05109436 9.54578674 67.36767578 8.60986328 C67.63540802 7.81395782 67.90314026 7.01805237 68.1789856 6.19802856 C69 4 69 4 71 0 C79.58 0 88.16 0 97 0 C89.21742706 21.4680296 81.16398042 42.82583625 72.99459839 64.14944458 C71.04162691 69.25383262 69.10793499 74.36488898 67.19570923 79.48468018 C66.03362047 82.59528872 64.86467813 85.70330118 63.69525146 88.81115723 C63.15780737 90.24532794 62.62370453 91.68075624 62.09332275 93.11755371 C57.34657492 105.97025098 51.88986275 119.15441729 39.4375 126.3125 C30.50101807 130.28623208 20.62319983 131 11 131 C11 123.41 11 115.82 11 108 C15.83398438 107.75585938 15.83398438 107.75585938 20.66796875 107.51171875 C24.99470069 106.84723823 27.68272664 105.53016603 30.546875 102.203125 C30.94390625 101.55859375 31.3409375 100.9140625 31.75 100.25 C32.15734375 99.61578125 32.5646875 98.9815625 32.984375 98.328125 C34.80042769 94.16517345 35.33961054 90.36394706 34.2384491 85.94145203 C33.82226822 84.9162294 33.40608734 83.89100677 32.97729492 82.8347168 C32.50897751 81.65785812 32.0406601 80.48099945 31.55815125 79.26847839 C31.03251445 77.99528556 30.50661268 76.72220209 29.98046875 75.44921875 C29.44100474 74.10963124 28.90305563 72.76943279 28.36653137 71.42866516 C26.94610819 67.89002696 25.50660298 64.3594735 24.0625 60.83044434 C22.63611397 57.33711192 21.22535676 53.83749853 19.81445312 50.33789062 C19.2572099 48.95613081 18.69992849 47.57438639 18.14260864 46.19265747 C17.86804966 45.51193302 17.59349068 44.83120857 17.31061172 44.12985611 C16.48332235 42.08128497 15.65367001 40.03368496 14.82345581 37.98629761 C9.71874759 25.38478368 4.84209511 12.70540391 0 0 Z " fill="#02253F" transform="translate(773,338)"/>
<path d="M0 0 C8.25 0 16.5 0 25 0 C25.04898438 3.9496875 25.09796875 7.899375 25.1484375 11.96875 C25.20249804 15.80798015 25.25978569 19.64714959 25.31738281 23.48632812 C25.35664078 26.14777553 25.3904546 28.80913333 25.421875 31.47070312 C25.46770895 35.30356731 25.52567415 39.1360888 25.5859375 42.96875 C25.59748871 44.15239136 25.60903992 45.33603271 25.62094116 46.55554199 C25.58171132 57.15744794 25.58171132 57.15744794 30 66.4375 C34.76561254 70.16063479 40.18248254 69.64153075 46 69 C50.76600473 67.22232621 54.33666464 64.38628804 57.12988281 60.09542847 C59.12081282 55.30084278 58.60430426 49.83475128 58.609375 44.7265625 C58.62591125 43.44768158 58.64244751 42.16880066 58.65948486 40.85116577 C58.6997459 37.46771399 58.7231238 34.08501304 58.73822021 30.70141602 C58.75784482 27.24219732 58.79959437 23.78324882 58.83984375 20.32421875 C58.9170623 13.54930716 58.9575731 6.77557597 59 0 C67.25 0 75.5 0 84 0 C84 30.03 84 60.06 84 91 C76.74 91 69.48 91 62 91 C61.34 87.04 60.68 83.08 60 79 C59.34 79 58.68 79 58 79 C57.73058594 79.598125 57.46117187 80.19625 57.18359375 80.8125 C53.83921006 86.99353916 47.63412001 90.18528809 41.16015625 92.3046875 C32.59142274 94.19002071 23.25550215 94.26217656 15.21484375 90.44921875 C7.74208364 85.55963497 3.38731879 78.48374869 1 70 C0.17150625 65.75983809 -0.12205766 61.76117585 -0.11352539 57.44384766 C-0.11344986 56.16297272 -0.11337433 54.88209778 -0.11329651 53.56240845 C-0.10819105 52.17962606 -0.10297508 50.79684408 -0.09765625 49.4140625 C-0.09578917 47.98774261 -0.09436664 46.56142208 -0.09336853 45.13510132 C-0.08956615 41.39673058 -0.07975552 37.65839922 -0.06866455 33.92004395 C-0.05840124 30.09904513 -0.0538604 26.2780399 -0.04882812 22.45703125 C-0.03813103 14.97133421 -0.02055289 7.48567766 0 0 Z " fill="#01243D" transform="translate(488,338)"/>
<path d="M0 0 C7.89779149 5.95293919 11.15943446 15.9395363 12.546875 25.3984375 C14.53610259 41.99308375 14.77667868 62.60913088 5.01171875 76.75 C-0.17198575 82.63818361 -6.3121149 86.6647299 -14.2578125 87.21875 C-15.77178191 87.25308711 -17.28647692 87.26283717 -18.80078125 87.25 C-19.99054565 87.24033203 -19.99054565 87.24033203 -21.2043457 87.23046875 C-29.92647964 86.95910157 -35.81385466 84.34111802 -41.86328125 78 C-50.45422406 67.18551906 -51.36979463 54.30637746 -51.30078125 40.9375 C-51.2951416 39.79474609 -51.28950195 38.65199219 -51.28369141 37.47460938 C-51.09221573 24.15093531 -49.61796114 12.18563199 -40.32421875 1.91015625 C-29.17620225 -8.49974957 -12.42433518 -7.81097693 0 0 Z " fill="#D71A13" transform="translate(217.98828125,373.25)"/>
<path d="M0 0 C9.70657275 6.59876656 14.21572091 15.06788078 16.60302734 26.33203125 C17.41364084 31.77999206 17.32724447 37.25325994 17.3125 42.75 C17.32861328 43.9359375 17.34472656 45.121875 17.36132812 46.34375 C17.36807441 58.70294559 15.79789253 71.53107087 7.1796875 81 C-0.20577586 87.95102434 -6.97849875 89.54458216 -16.99389648 89.48803711 C-25.41224015 89.15831127 -31.13010167 86.2972614 -36.875 80.25 C-45.78589729 69.05371964 -46.36119511 55.98548285 -46.375 42.1875 C-46.39949219 40.91068359 -46.42398438 39.63386719 -46.44921875 38.31835938 C-46.48728782 25.85074047 -44.04186747 13.7301703 -35.44140625 4.2890625 C-26.04303596 -4.6100872 -11.44315194 -5.63161408 0 0 Z " fill="#D71A13" transform="translate(285,371)"/>
<path d="M0 0 C7.01388437 5.07868098 14.59213826 12.03134063 16.65234375 20.765625 C16.76707031 21.50296875 16.88179687 22.2403125 17 23 C14.1062867 23.84137043 11.21040603 24.6733036 8.3125 25.5 C7.49587891 25.73847656 6.67925781 25.97695313 5.83789062 26.22265625 C-2.31581837 28.53342398 -2.31581837 28.53342398 -6 28 C-6.556875 27.278125 -7.11375 26.55625 -7.6875 25.8125 C-11.52957607 21.13970478 -16.67985491 18.52090253 -22.6640625 17.58203125 C-29.33793185 17.3703224 -33.58385712 18.92099334 -38.6875 23.3125 C-44.13570723 29.6442003 -45.39473575 36.11520507 -45.2734375 44.2421875 C-44.60227501 51.01134064 -42.58050095 57.08241253 -37.375 61.625 C-31.42904768 66.11692031 -25.27133495 65.70959299 -18 65 C-13.49860435 63.34628605 -10.75538388 61.03006893 -7.9375 57.1875 C-6 55 -6 55 -2.8671875 54.7421875 C1.20499277 55.01366618 4.9110034 55.8155771 8.8125 56.9375 C9.47958984 57.11990234 10.14667969 57.30230469 10.83398438 57.49023438 C13.32161018 58.18054426 15.68525232 58.84262616 18 60 C15.53534659 69.6121483 9.04132874 77.39913521 1 83 C-12.15614023 89.66908744 -26.70907111 91.44549804 -41.0625 87.4375 C-52.58909458 83.26332026 -61.54979787 75.57615216 -66.8125 64.5 C-72.62206943 51.33428635 -73.2396665 35.4133993 -68.3203125 21.859375 C-62.8973255 10.11491794 -54.32300736 1.95135234 -42.48046875 -3.08984375 C-29.78628091 -7.7477111 -11.58984409 -7.12327094 0 0 Z " fill="#02253E" transform="translate(655,342)"/>
<path d="M0 0 C8.91 0 17.82 0 27 0 C27 32.34 27 64.68 27 98 C43.5 98 60 98 77 98 C77 105.92 77 113.84 77 122 C51.59 122 26.18 122 0 122 C0 81.74 0 41.48 0 0 Z " fill="#012843" transform="translate(402,307)"/>
<path d="M0 0 C0 40.26 0 80.52 0 122 C-9.24 122 -18.48 122 -28 122 C-28 90.98 -28 59.96 -28 28 C-34.93 31.3 -41.86 34.6 -49 38 C-49.99 38 -50.98 38 -52 38 C-52.90041311 29.97667603 -53.11547323 22.07029553 -53 14 C-50.61134318 12.80282645 -48.22172188 11.60770384 -45.83007812 10.41650391 C-44.06882511 9.53496578 -42.3115249 8.64542706 -40.56054688 7.74365234 C-38.14356596 6.5126341 -35.70166237 5.34769613 -33.25 4.1875 C-32.47785156 3.78080078 -31.70570313 3.37410156 -30.91015625 2.95507812 C-20.33729823 -1.92155019 -12.92498013 0 0 0 Z " fill="#01253E" transform="translate(455,462)"/>
<path d="M0 0 C7.11046701 4.06517609 10.41526627 12.06677591 12.75 19.5625 C15.71439502 34.73891362 16.27783005 55.16419012 8.5 69 C5.05604835 73.91101262 0.82861177 78.48571734 -5.25 79.5625 C-11.2013489 80.34557222 -15.48646516 79.68630639 -20.40234375 76.1484375 C-27.96946942 69.65318798 -31.03378358 61.29991676 -32.25 51.5625 C-32.55474164 47.33130667 -32.65795604 43.11644442 -32.6875 38.875 C-32.70272705 37.32631226 -32.70272705 37.32631226 -32.71826172 35.74633789 C-32.59862111 25.14971876 -30.9787641 12.52319787 -23.3203125 4.5546875 C-16.48942404 -1.62564016 -8.86026407 -3.75579594 0 0 Z " fill="#F5F4EF" transform="translate(531.25,484.4375)"/>
<path d="M0 0 C6.72441962 3.91339174 9.91958657 11.16394223 12.14453125 18.32421875 C15.93325904 33.94249948 16.23621308 55.66104948 7.73046875 69.8203125 C4.32261088 74.39453091 0.34867929 78.11429135 -5.3125 79.5625 C-11.27154213 80.41051753 -15.52530385 79.67797117 -20.4609375 76.16796875 C-28.67253092 69.04778964 -31.13016011 60.06753761 -32.3125 49.5625 C-33.89766038 16.72177892 -33.89766038 16.72177892 -23.3125 3.5625 C-16.88122045 -2.68543167 -8.16416639 -3.37181633 0 0 Z " fill="#F5F4EF" transform="translate(645.3125,484.4375)"/>
<path d="M0 0 C3.42703642 2.77867818 4.84812721 4.7343934 5.375 9.125 C4.49020345 18.2678977 -3.03364772 24.55467354 -9 31 C-10.06755834 32.22477596 -11.13035827 33.45372193 -12.1875 34.6875 C-19.91036743 43.54714464 -27.99467144 52.14806022 -36.40234375 60.359375 C-37.93897017 61.93732878 -39.27773529 63.57245906 -40.625 65.3125 C-43.27529272 68.31151545 -45.22475848 69.69022233 -49 71 C-54.43017721 70.7721604 -57.47791047 68.44954775 -61.375 64.9375 C-61.94154297 64.44088867 -62.50808594 63.94427734 -63.09179688 63.43261719 C-81.29608799 47.33520811 -81.29608799 47.33520811 -82.375 37.625 C-82 34 -82 34 -79.875 31.0625 C-77 29 -77 29 -74.25 28.25 C-64.87965663 30.41238693 -57.50135556 40.27990724 -51 47 C-44.29843017 41.63874413 -38.70642973 35.37145701 -33 29 C-32.22269531 28.13761719 -31.44539063 27.27523437 -30.64453125 26.38671875 C-29.18049833 24.76203088 -27.71823891 23.13574302 -26.2578125 21.5078125 C-23.78823503 18.76478701 -21.30082903 16.03852016 -18.8125 13.3125 C-15.98372351 10.21096435 -13.20084502 7.08841415 -10.5 3.875 C-7.04892284 -0.09373873 -5.2020555 -0.52020555 0 0 Z " fill="#037D44" transform="translate(246,511)"/>
<path d="M0 0 C0 30.03 0 60.06 0 91 C-6.27 91 -12.54 91 -19 91 C-19 67.9 -19 44.8 -19 21 C-23.95 23.64 -28.9 26.28 -34 29 C-34.66 29 -35.32 29 -36 29 C-36 22.73 -36 16.46 -36 10 C-33.20905657 8.28438164 -30.40168048 6.63247362 -27.5625 5 C-26.79873047 4.52304687 -26.03496094 4.04609375 -25.24804688 3.5546875 C-16.16012365 -1.55498821 -11.97518807 0 0 0 Z " fill="#D81B15" transform="translate(157,369)"/>
<path d="M0 0 C4.63618302 4.0096718 5.57855375 10.1218179 6.3125 16 C6.48011687 19.91739244 6.49759179 23.82943212 6.5 27.75 C6.51224609 28.78382813 6.52449219 29.81765625 6.53710938 30.8828125 C6.5704454 48.52868258 6.5704454 48.52868258 1.3125 55 C-2.10844119 57.56570589 -5.53523484 57.43708054 -9.6875 57 C-13.66443191 54.61384086 -15.44676951 52.44595092 -16.6875 48 C-17.9651887 41.23850869 -17.87127801 34.48834069 -17.875 27.625 C-17.88724609 26.44421875 -17.89949219 25.2634375 -17.91210938 24.046875 C-17.93810392 8.48480607 -17.93810392 8.48480607 -13.75 2 C-9.77805108 -1.85158683 -5.01945814 -1.86770535 0 0 Z " fill="#FDFBF8" transform="translate(204.6875,386)"/>
<path d="M0 0 C4.15527758 2.21614804 5.8133509 4.92699927 7.38256836 9.31542969 C8.62083742 14.6993785 8.44011862 20.22868036 8.39111328 25.72607422 C8.3750854 27.86361026 8.39098825 29.99924156 8.41015625 32.13671875 C8.43764004 47.63622517 8.43764004 47.63622517 5 54 C1.37764047 57.18229331 -1.08974201 57.58495177 -5.8125 57.4140625 C-9.44368698 56.72673068 -10.8985455 54.92930022 -13 52 C-14.93272843 47.33033769 -15.30719522 43.03225214 -15.30078125 38.0390625 C-15.30506638 37.289664 -15.3093515 36.5402655 -15.31376648 35.76815796 C-15.31948372 34.18984991 -15.32002935 32.61151552 -15.31567383 31.03320312 C-15.31251826 28.63885776 -15.33598885 26.24575509 -15.36132812 23.8515625 C-15.36360209 22.30989737 -15.36430416 20.76822896 -15.36328125 19.2265625 C-15.372491 18.52109283 -15.38170074 17.81562317 -15.39118958 17.08877563 C-15.33759705 11.23155052 -14.19305305 5.59917398 -10.3125 1 C-6.86075584 -0.49264612 -3.65177899 -0.63287803 0 0 Z " fill="#FEFBF8" transform="translate(274,386)"/>
<path d="M0 0 C8.91 0 17.82 0 27 0 C27 32.34 27 64.68 27 98 C43.5 98 60 98 77 98 C77 105.92 77 113.84 77 122 C51.59 122 26.18 122 0 122 C0 81.74 0 41.48 0 0 Z M2 2 C2 41.27 2 80.54 2 121 C26.42 121 50.84 121 76 121 C76 113.74 76 106.48 76 99 C51.745 98.505 51.745 98.505 27 98 C26.505 50.48 26.505 50.48 26 2 C18.08 2 10.16 2 2 2 Z " fill="#050D1D" transform="translate(402,307)"/>
<path d="M0 0 C1.21042969 -0.00128906 2.42085937 -0.00257813 3.66796875 -0.00390625 C4.94285156 -0.00003906 6.21773437 0.00382812 7.53125 0.0078125 C9.44357422 0.00201172 9.44357422 0.00201172 11.39453125 -0.00390625 C13.21017578 -0.00197266 13.21017578 -0.00197266 15.0625 0 C16.18205078 0.00112793 17.30160156 0.00225586 18.45507812 0.00341797 C21.03125 0.1328125 21.03125 0.1328125 22.03125 1.1328125 C22.12506302 2.97399279 22.14868954 4.81878891 22.14477539 6.66235352 C22.14469986 7.84350235 22.14462433 9.02465118 22.14454651 10.24159241 C22.13938522 11.5269841 22.13422394 12.81237579 22.12890625 14.13671875 C22.1274913 15.44487045 22.12607635 16.75302216 22.12461853 18.10081482 C22.1207941 21.58444109 22.11096446 25.06802589 22.09991455 28.55163574 C22.08969882 32.10407958 22.08512056 35.65653009 22.08007812 39.20898438 C22.06934212 46.18361082 22.0522666 53.15820967 22.03125 60.1328125 C23.02125 60.1328125 24.01125 60.1328125 25.03125 60.1328125 C23.64535019 63.22443514 22.53941459 64.62464791 20.03125 67.1328125 C20.03125 45.3528125 20.03125 23.5728125 20.03125 1.1328125 C11.78125 1.1328125 3.53125 1.1328125 -4.96875 1.1328125 C-4.96875 41.3928125 -4.96875 81.6528125 -4.96875 123.1328125 C3.28125 123.1328125 11.53125 123.1328125 20.03125 123.1328125 C19.99644531 120.99039063 19.96164062 118.84796875 19.92578125 116.640625 C19.9023945 114.56886122 19.88417303 112.49711206 19.86645508 110.42529297 C19.85135517 108.98381992 19.83087342 107.54239291 19.80493164 106.10107422 C19.7685987 104.03080907 19.75153671 101.96115043 19.73828125 99.890625 C19.7225708 98.6442627 19.70686035 97.39790039 19.69067383 96.11376953 C19.80306396 95.13005371 19.9154541 94.14633789 20.03125 93.1328125 C21.51625 92.1428125 21.51625 92.1428125 23.03125 91.1328125 C22.9590625 91.71474365 22.886875 92.2966748 22.8125 92.89624023 C22.04291739 99.68954365 21.9439583 106.36473695 22.03125 113.1953125 C22.05661547 115.24864693 22.07769714 117.3020404 22.09375 119.35546875 C22.10535156 120.25015869 22.11695313 121.14484863 22.12890625 122.06665039 C22.03125 124.1328125 22.03125 124.1328125 21.03125 125.1328125 C19.12840013 125.23255639 17.22186747 125.2636188 15.31640625 125.265625 C14.15560547 125.26691406 12.99480469 125.26820313 11.79882812 125.26953125 C10.57615234 125.26566406 9.35347656 125.26179688 8.09375 125.2578125 C6.87494141 125.26167969 5.65613281 125.26554687 4.40039062 125.26953125 C3.23830078 125.26824219 2.07621094 125.26695312 0.87890625 125.265625 C-0.19351318 125.26449707 -1.26593262 125.26336914 -2.37084961 125.26220703 C-4.96875 125.1328125 -4.96875 125.1328125 -6.96875 124.1328125 C-6.99207916 108.11287713 -7.00972926 92.09294724 -7.02056217 76.072999 C-7.02572509 68.6351674 -7.03276771 61.19734633 -7.04418945 53.75952148 C-7.05413641 47.27899908 -7.06060346 40.79848431 -7.06283849 34.31795448 C-7.06414558 30.88450708 -7.0672313 27.4510815 -7.07448006 24.01764107 C-7.08249416 20.19087429 -7.08274113 16.36412915 -7.08227539 12.53735352 C-7.08587067 11.39080795 -7.08946594 10.24426239 -7.09317017 9.06297302 C-7.0917955 8.02665741 -7.09042084 6.9903418 -7.08900452 5.92262268 C-7.08992631 5.01650018 -7.0908481 4.11037767 -7.09179783 3.17679691 C-6.83143688 -1.14813702 -3.63042786 0.0036576 0 0 Z " fill="#FDFDFB" transform="translate(688.96875,305.8671875)"/>
<path d="M0 0 C8.25 0 16.5 0 25 0 C25 21.45 25 42.9 25 65 C24.01 65.495 24.01 65.495 23 66 C23 44.88 23 23.76 23 2 C15.74 2 8.48 2 1 2 C1 41.27 1 80.54 1 121 C8.26 121 15.52 121 23 121 C22.95359375 118.95296875 22.9071875 116.9059375 22.859375 114.796875 C22.83155577 112.80779973 22.80388048 110.81871957 22.78027344 108.82958984 C22.76019358 107.4502332 22.73292334 106.07096131 22.69824219 104.69189453 C22.64957183 102.70643021 22.62913582 100.72033746 22.609375 98.734375 C22.58842773 97.54038086 22.56748047 96.34638672 22.54589844 95.11621094 C23.08373537 91.42537726 24.13548192 90.2896321 27 88 C27.66 88.33 28.32 88.66 29 89 C28.5155542 89.35360596 28.0311084 89.70721191 27.53198242 90.0715332 C25.27022891 92.91863934 25.56420465 95.25669937 25.48828125 98.85546875 C25.47033005 99.51710526 25.45237885 100.17874176 25.43388367 100.86042786 C25.37979102 102.96938747 25.34589069 105.07812099 25.3125 107.1875 C25.27932573 108.61917208 25.24483595 110.05081433 25.20898438 111.48242188 C25.12159113 114.98831349 25.06152321 118.49317716 25 122 C16.75 122 8.5 122 0 122 C0 81.74 0 41.48 0 0 Z " fill="#010517" transform="translate(684,307)"/>
<path d="M0 0 C8.25 0 16.5 0 25 0 C25 21.45 25 42.9 25 65 C24.01 65.495 24.01 65.495 23 66 C23 44.88 23 23.76 23 2 C15.74 2 8.48 2 1 2 C1 3.98 1 5.96 1 8 C0.67 8 0.34 8 0 8 C0 5.36 0 2.72 0 0 Z " fill="#031229" transform="translate(684,307)"/>
<path d="M0 0 C0.66 0 1.32 0 2 0 C2.04934926 5.65998046 2.08569529 11.31983636 2.10986328 16.97998047 C2.11993582 18.90643494 2.13359443 20.83287408 2.15087891 22.75927734 C2.17507241 25.52445252 2.18647036 28.289426 2.1953125 31.0546875 C2.20563507 31.9193161 2.21595764 32.7839447 2.22659302 33.67477417 C2.22699106 35.78453521 2.12265243 37.89380718 2 40 C0 42 0 42 -2.79736328 42.22705078 C-3.95993652 42.21657715 -5.12250977 42.20610352 -6.3203125 42.1953125 C-8.20556641 42.18564453 -8.20556641 42.18564453 -10.12890625 42.17578125 C-12.10697266 42.15064453 -12.10697266 42.15064453 -14.125 42.125 C-15.46483721 42.11496983 -16.80468152 42.10584404 -18.14453125 42.09765625 C-21.42986573 42.07402075 -24.71484465 42.04107234 -28 42 C-28 41.01 -28 40.02 -28 39 C-18.76 39 -9.52 39 0 39 C0 26.13 0 13.26 0 0 Z " fill="#E4E7E6" transform="translate(455,545)"/>
<path d="M0 0 C0.33 0 0.66 0 1 0 C1.08708752 4.2498709 1.14042181 8.49951239 1.1875 12.75 C1.22520508 14.55984375 1.22520508 14.55984375 1.26367188 16.40625 C1.27333984 17.56640625 1.28300781 18.7265625 1.29296875 19.921875 C1.3086792 20.99018555 1.32438965 22.05849609 1.34057617 23.15917969 C1 26 1 26 -2 30 C-2 21.42 -2 12.84 -2 4 C-1.34 4 -0.68 4 0 4 C0 2.68 0 1.36 0 0 Z " fill="#D5211D" transform="translate(258,397)"/>
<path d="M0 0 C8.58 0 17.16 0 26 0 C25.34 1.65 24.68 3.3 24 5 C23.67 4.01 23.34 3.02 23 2 C19.37407004 2.08060591 15.74985598 2.19346817 12.125 2.3125 C11.09246094 2.33505859 10.05992187 2.35761719 8.99609375 2.38085938 C7.51689453 2.4340332 7.51689453 2.4340332 6.0078125 2.48828125 C5.09660645 2.51446533 4.18540039 2.54064941 3.24658203 2.56762695 C2.50520996 2.71031006 1.76383789 2.85299316 1 3 C0.34 3.99 -0.32 4.98 -1 6 C-0.67 4.02 -0.34 2.04 0 0 Z " fill="#010B21" transform="translate(844,338)"/>
<path d="M0 0 C6 2 6 2 8.19140625 2.765625 C12.47407477 4.24390652 16.52334044 5.25389007 21 6 C21.99 6.66 22.98 7.32 24 8 C15.14491329 8.66830843 7.39032666 5.86030492 0 1 C0 0.67 0 0.34 0 0 Z " fill="#071223" transform="translate(493,578)"/>
<path d="M0 0 C5.61 0 11.22 0 17 0 C16.67 0.99 16.34 1.98 16 3 C10.72 3 5.44 3 0 3 C0 2.01 0 1.02 0 0 Z " fill="#BFC5C7" transform="translate(628,457)"/>
<path d="M0 0 C-3.90028225 2.60018816 -7.47434569 2.15085514 -12 2 C-12.33 1.01 -12.66 0.02 -13 -1 C-11.58566794 -1.2236337 -10.16832382 -1.42826476 -8.75 -1.625 C-7.56664062 -1.79902344 -7.56664062 -1.79902344 -6.359375 -1.9765625 C-3.67847541 -2.00319395 -2.27305911 -1.36592084 0 0 Z " fill="#D6221F" transform="translate(279,444)"/>
<path d="M0 0 C0.66 0 1.32 0 2 0 C2.33 0.99 2.66 1.98 3 3 C3.66 3.66 4.32 4.32 5 5 C4.625 7.125 4.625 7.125 4 9 C4.66 9 5.32 9 6 9 C6.625 11.3125 6.625 11.3125 7 14 C6.01 15.485 6.01 15.485 5 17 C4.16301614 14.54285453 3.33027576 12.08441143 2.5 9.625 C2.26152344 8.92632812 2.02304687 8.22765625 1.77734375 7.5078125 C0 2.2265625 0 2.2265625 0 0 Z " fill="#EBEDED" transform="translate(810,365)"/>
<path d="M0 0 C3.42634831 1.1421161 3.96357826 1.9540851 6 4.8125 C6.7425 5.84310547 6.7425 5.84310547 7.5 6.89453125 C7.995 7.58933594 8.49 8.28414062 9 9 C9.99667465 10.33582088 10.99570107 11.66990172 12 13 C11.01 13.33 10.02 13.66 9 14 C8.443125 13.113125 7.88625 12.22625 7.3125 11.3125 C5.75357457 8.94338035 4.32908087 7.34432904 2.25 5.3125 C0 3 0 3 0 0 Z " fill="#E5F0E9" transform="translate(73,525)"/>
<path d="M0 0 C0.33 0.66 0.66 1.32 1 2 C3.16467461 2.62669199 5.35864524 3.15427374 7.5625 3.625 C8.76003906 3.88539063 9.95757813 4.14578125 11.19140625 4.4140625 C12.11824219 4.60742188 13.04507813 4.80078125 14 5 C10.21863113 7.11072098 8.23824689 7.14785853 4 6 C1.625 4.625 1.625 4.625 0 3 C0 2.01 0 1.02 0 0 Z " fill="#EBECEA" transform="translate(516,401)"/>
<path d="M0 0 C3 3 3 3 3.29296875 5.26171875 C3.25816406 6.06222656 3.22335937 6.86273437 3.1875 7.6875 C3.16042969 8.49574219 3.13335938 9.30398438 3.10546875 10.13671875 C3.07066406 10.75160156 3.03585937 11.36648438 3 12 C2.01 12.33 1.02 12.66 0 13 C0 8.71 0 4.42 0 0 Z " fill="#00152C" transform="translate(585,516)"/>
<path d="M0 0 C4.62 0 9.24 0 14 0 C13.01 0.33 12.02 0.66 11 1 C11 1.66 11 2.32 11 3 C7.04 3 3.08 3 -1 3 C-0.67 2.01 -0.34 1.02 0 0 Z " fill="#ECECE9" transform="translate(626,431)"/>
<path d="M0 0 C0.433125 0.474375 0.86625 0.94875 1.3125 1.4375 C3.02309613 3.23686957 3.02309613 3.23686957 6 4 C6 4.99 6 5.98 6 7 C6.66 7.66 7.32 8.32 8 9 C8.71408334 10.98356483 9.38617742 12.98315437 10 15 C5.84710903 11.32628876 2.76621742 6.77633541 0 2 C0 1.34 0 0.68 0 0 Z " fill="#0C1827" transform="translate(732,412)"/>
<path d="M0 0 C-4.1217079 1.99840383 -7.4402752 2.33775739 -12 2 C-12.99 1.34 -13.98 0.68 -15 0 C-13.25360243 -0.39143394 -11.50264082 -0.76254287 -9.75 -1.125 C-8.77546875 -1.33382812 -7.8009375 -1.54265625 -6.796875 -1.7578125 C-3.76557234 -2.0202996 -2.51982654 -1.61988849 0 0 Z " fill="#E5E8E7" transform="translate(543,586)"/>
<path d="M0 0 C2.67868487 1.33934244 2.74954078 2.51692397 3.6875 5.3125 C4.09548828 6.48232422 4.09548828 6.48232422 4.51171875 7.67578125 C5.03839183 10.18274511 4.8178554 11.60132343 4 14 C4 13.01 4 12.02 4 11 C3.34 11 2.68 11 2 11 C0.80712589 7.12315913 0 4.08378077 0 0 Z " fill="#091829" transform="translate(807,360)"/>
<path d="M0 0 C3.63 0 7.26 0 11 0 C11.33 0.99 11.66 1.98 12 3 C9.36 3 6.72 3 4 3 C4 2.34 4 1.68 4 1 C2.68 0.67 1.36 0.34 0 0 Z " fill="#DB2720" transform="translate(264,368)"/>
<path d="M0 0 C0.99 0.33 1.98 0.66 3 1 C3 3.97 3 6.94 3 10 C2.01 10.33 1.02 10.66 0 11 C0 7.37 0 3.74 0 0 Z " fill="#E9EAE7" transform="translate(656,510)"/>
<path d="M0 0 C0.928125 0.45375 1.85625 0.9075 2.8125 1.375 C3.1425 2.695 3.4725 4.015 3.8125 5.375 C0.1825 4.055 -3.4475 2.735 -7.1875 1.375 C-3.1875 -0.625 -3.1875 -0.625 0 0 Z " fill="#E6E9E9" transform="translate(544.1875,460.625)"/>
<path d="M0 0 C0.33 0.99 0.66 1.98 1 3 C-6.625 4.25 -6.625 4.25 -10 2 C-3.375 0 -3.375 0 0 0 Z " fill="#EBECEB" transform="translate(671,365)"/>
<path d="M0 0 C0.33 0 0.66 0 1 0 C1 2.64 1 5.28 1 8 C0.34 8 -0.32 8 -1 8 C-1.12375 8.78375 -1.2475 9.5675 -1.375 10.375 C-2 13 -2 13 -4 15 C-2.9318153 9.88634986 -1.76892524 4.92772031 0 0 Z " fill="#111B29" transform="translate(840,348)"/>
<path d="M0 0 C3 3.75 3 3.75 3 6 C3.99 6.33 4.98 6.66 6 7 C6.33 8.98 6.66 10.96 7 13 C3.66366632 10.00880429 1.75472293 7.12359889 0 3 C0 2.01 0 1.02 0 0 Z " fill="#071223" transform="translate(591,556)"/>
<path d="M0 0 C0.66 0 1.32 0 2 0 C2.19294408 4.82360189 1.75747614 8.49646738 0 13 C-0.96661363 9.87819599 -0.98988909 7.47916205 -0.5625 4.25 C-0.46066406 3.45078125 -0.35882813 2.6515625 -0.25390625 1.828125 C-0.17011719 1.22484375 -0.08632813 0.6215625 0 0 Z " fill="#FCAE0A" transform="translate(277,553)"/>
<path d="M0 0 C2.31 0 4.62 0 7 0 C7.33 0.99 7.66 1.98 8 3 C8.66 3.33 9.32 3.66 10 4 C7 5 7 5 5.17578125 4.22265625 C3.45052083 3.1484375 1.72526042 2.07421875 0 1 C0 0.67 0 0.34 0 0 Z " fill="#087333" transform="translate(91,542)"/>
<path d="M0 0 C0.33 0 0.66 0 1 0 C1.33 3.3 1.66 6.6 2 10 C1.01 10.33 0.02 10.66 -1 11 C-1.0270043 9.54176788 -1.04639787 8.08339325 -1.0625 6.625 C-1.07410156 5.81289063 -1.08570313 5.00078125 -1.09765625 4.1640625 C-1 2 -1 2 0 0 Z " fill="#EAEDEB" transform="translate(543,504)"/>
<path d="M0 0 C3.00617269 3.00617269 2.59585316 5.82381598 3 10 C2.01 10.33 1.02 10.66 0 11 C0.33 9.68 0.66 8.36 1 7 C0.34 7 -0.32 7 -1 7 C-0.67 4.69 -0.34 2.38 0 0 Z " fill="#D5211D" transform="translate(186,425)"/>
<path d="M0 0 C0.33 0.99 0.66 1.98 1 3 C-3.455 6.96 -3.455 6.96 -8 11 C-8 8 -8 8 -6.25 5.95703125 C-5.5075 5.24933594 -4.765 4.54164063 -4 3.8125 C-2.88625 2.73935547 -2.88625 2.73935547 -1.75 1.64453125 C-1.1725 1.10183594 -0.595 0.55914063 0 0 Z " fill="#F6D30A" transform="translate(236,543)"/>
<path d="M0 0 C0.33 0 0.66 0 1 0 C1 2.31 1 4.62 1 7 C1.66 7 2.32 7 3 7 C3 8.98 3 10.96 3 13 C2.34 13 1.68 13 1 13 C-0.00496852 9.98509443 -0.10335303 7.95818308 -0.0625 4.8125 C-0.05347656 3.91144531 -0.04445312 3.01039063 -0.03515625 2.08203125 C-0.02355469 1.39496094 -0.01195312 0.70789063 0 0 Z " fill="#D20F0B" transform="translate(240,424)"/>
<path d="M0 0 C0.66 0.33 1.32 0.66 2 1 C2 4.63 2 8.26 2 12 C-1.31037029 7.58617295 -1.39887707 6.28512118 -1 1 C-0.67 0.67 -0.34 0.34 0 0 Z " fill="#15344B" transform="translate(403,481)"/>
<path d="M0 0 C3.94139078 1.66751148 6.7892812 4.22710649 10 7 C9.34 7.66 8.68 8.32 8 9 C6.66368764 7.6905332 5.33102075 6.37734515 4 5.0625 C3.2575 4.33160156 2.515 3.60070312 1.75 2.84765625 C0 1 0 1 0 0 Z " fill="#1F6F47" transform="translate(174,565)"/>
<path d="M0 0 C1.11375 0.7115625 1.11375 0.7115625 2.25 1.4375 C4.61050015 2.77869327 6.36648477 3.512312 9 4 C8.67 5.32 8.34 6.64 8 8 C6.66102417 7.04956626 5.32894573 6.08940853 4 5.125 C3.2575 4.59132813 2.515 4.05765625 1.75 3.5078125 C1.1725 3.01023437 0.595 2.51265625 0 2 C0 1.34 0 0.68 0 0 Z " fill="#E8EBEB" transform="translate(660,463)"/>
<path d="M0 0 C1.32 0.33 2.64 0.66 4 1 C3.67 1.99 3.34 2.98 3 4 C1.02 4.33 -0.96 4.66 -3 5 C-2.67 4.01 -2.34 3.02 -2 2 C-1.34 2 -0.68 2 0 2 C0 1.34 0 0.68 0 0 Z " fill="#0C2134" transform="translate(536,581)"/>
<path d="M0 0 C0.33 0 0.66 0 1 0 C1 2.97 1 5.94 1 9 C0.01 9.33 -0.98 9.66 -2 10 C-1.34 6.7 -0.68 3.4 0 0 Z " fill="#EBEDEC" transform="translate(616,498)"/>
<path d="M0 0 C1.12588014 0.95729916 2.2506715 1.91587895 3.375 2.875 C4.00148438 3.40867187 4.62796875 3.94234375 5.2734375 4.4921875 C6.55836651 5.61432007 7.79371975 6.79371975 9 8 C7.68 8.33 6.36 8.66 5 9 C1.125 3.375 1.125 3.375 0 0 Z " fill="#F9FBF8" transform="translate(494,420)"/>
<path d="M0 0 C3.3 0.33 6.6 0.66 10 1 C10 1.66 10 2.32 10 3 C7.36 3.33 4.72 3.66 2 4 C1.34 2.68 0.68 1.36 0 0 Z " fill="#F6C90E" transform="translate(189,580)"/>
</svg>
